<mxfile host="app.diagrams.net" modified="2024-03-09T05:09:30.230Z" agent="Mozilla/5.0 (Macintosh; Intel Mac OS X 10.15; rv:123.0) Gecko/20100101 Firefox/123.0" version="24.0.3" etag="To47ZFzwaOmpiBgWnieL" type="github">
  <diagram name="Page-1" id="yBXcqWtQpS4EB_pWQ0F8">
    <mxGraphModel>
      <root>
        <mxCell id="0" />
        <mxCell id="1" parent="0" />
      </root>
    </mxGraphModel>
  </diagram>
</mxfile>
